# xmcd
#
# Track frame offsets: 
#        150
#        11645
#        21779
#        30281
#        42346
#        53030
#        63984
#        77305
#        87693
#        101388
#        118414
#        129907
#        141108
#        155270
#
# Disc length: 2408 seconds
#
# Revision: 0
# Processed by: cddbd v1.5.2PL0 Copyright (c) Steve Scherf et al.
# Submitted via: ExactAudioCopy v0.99pb4
#
DISCID=a809660e
DTITLE=The Thunder And Lightning Allstar Country Band From Nashville A
DTITLE=nd Texas - Country and Western Super Hits instrumental
DYEAR=2008
DGENRE=Instrumental
TTITLE0=01 - Jambalaya (Country Instrumental)
TTITLE1=02 - Oh My Darling Clementine (Country Instrumental)
TTITLE2=03 - Oh Susanna (Country Instrumental)
TTITLE3=04 - On Top Of Old Smoky (Country Instrumental)
TTITLE4=05 - The Yellow Rose Of Texas (Country Instrumental)
TTITLE5=06 - Tom Dooley (Country Instrumental)
TTITLE6=07 - Home On The Range (Country Instrumental)
TTITLE7=08 - Carry Me Back To Old Virginny (Country Instrumental)
TTITLE8=09 - Oh Lonesome Me (Country Instrumental)
TTITLE9=10 - Help Me Make it Through The Night (Country Instrumental
TTITLE10=11 - Six Days On The Road (Country Instrumental)
TTITLE11=12 - Some Broken Hearts Never Mend (Country Instrumental)
TTITLE12=13 - Take Me Home Country Roads (Country Instrumental)
TTITLE13=14 - Vaya Con Dios (Country Instrumental)
EXTD=
EXTT0=
EXTT1=
EXTT2=
EXTT3=
EXTT4=
EXTT5=
EXTT6=
EXTT7=
EXTT8=
EXTT9=
EXTT10=
EXTT11=
EXTT12=
EXTT13=
PLAYORDER=
